<?xml version="1.0" standalone="no"?>
<!-- Generator: Adobe Fireworks 10, Export SVG Extension by Aaron Beall (http://fireworks.abeall.com) . Version: 0.6.1  -->
<!DOCTYPE svg PUBLIC "-//W3C//DTD SVG 1.1//EN" "http://www.w3.org/Graphics/SVG/1.1/DTD/svg11.dtd">
<svg id="angular-logo.fw-P%E1gina%201" viewBox="0 0 32 32" style="background-color:#ffffff00" version="1.1"
	xmlns="http://www.w3.org/2000/svg" xmlns:xlink="http://www.w3.org/1999/xlink" xml:space="preserve"
	x="0px" y="0px" width="32px" height="32px"
>
	<g id="Plano%20de%20fundo">
		<path d="M 21.1097 2.7355 C 24.1032 3.6645 27.0968 4.5935 30.0903 5.9355 C 30.4 6.0387 30.4 6.5548 30.4 6.7613 C 30.4 7.071 30.0903 9.4452 29.8839 10.6839 C 29.7806 11.4065 29.5742 12.3355 29.5742 13.1613 C 29.471 13.9871 29.3677 14.9161 29.2645 15.7419 C 29.0581 17.7032 28.7484 19.7677 28.5419 21.729 C 28.4387 22.5548 28.4387 23.6903 28.0258 24.7226 C 27.7161 25.5484 26.3742 25.8581 25.8581 26.1677 C 22.5548 28.0258 16.2581 31.5355 15.9484 31.5355 C 15.7419 31.5355 13.9871 30.6065 13.1613 30.0903 C 11.0968 29.0581 8.8258 27.8194 6.7613 26.5806 C 5.8323 26.0645 4.8 25.6516 3.9742 24.929 C 3.3548 24.3097 3.5613 23.071 3.4581 22.4516 C 3.3548 21.1097 3.1484 19.5613 2.9419 18.2194 C 2.529 14.5032 1.7032 7.2774 1.7032 7.071 C 1.7032 6.9677 1.6 6.1419 2.1161 5.9355 C 4.9032 4.6968 15.0194 1.1871 15.9484 1.1871 C 16.9806 1.1871 20.2839 2.4258 21.1097 2.7355 ZM 28.5419 6.9677 C 29.0581 7.1742 28.9548 7.6903 28.9548 7.8968 C 28.9548 8.2065 27.8194 18.529 26.7871 23.7935 C 26.7871 24.1032 26.0645 24.4129 25.7548 24.6194 C 24.2065 25.4452 22.5548 26.4774 20.9032 27.3032 C 20.5935 27.4065 16.671 29.8839 15.8452 29.8839 C 15.6387 29.8839 14.7097 29.3677 14.0903 29.0581 C 12.2323 27.9226 10.1677 26.9935 8.3097 25.8581 C 7.1742 25.2387 5.9355 25.0323 5.2129 24 C 4.6968 23.1742 4.8 21.9355 4.6968 21.1097 C 4.2839 16.7742 3.2516 8.4129 3.2516 8.1032 C 3.2516 7.7935 3.1484 7.1742 3.7677 6.9677 C 5.6258 6.1419 15.0194 2.7355 15.8452 2.7355 C 16.7742 2.7355 26.271 5.8323 28.5419 6.9677 Z" fill="#b3b3b3"/>
		<path d="M 15.9484 2.6323 L 15.9484 3.3548 L 6.9677 23.3806 L 9.5484 23.4839 C 9.8581 23.3806 10.1677 23.3806 10.3742 23.2774 C 10.9935 21.9355 11.6129 20.3871 12.2323 18.9419 L 15.9484 18.9419 L 15.9484 29.8839 C 12.3355 27.9226 8.7226 25.9613 5.1097 23.8968 C 4.4903 18.4258 3.2516 7.5871 3.2516 7.3806 C 3.2516 7.071 3.2516 7.1742 3.2516 7.071 C 6.3484 6.0387 9.5484 4.8 12.7484 3.6645 C 13.5742 3.3548 14.7097 3.0452 15.6387 2.6323 L 15.9484 2.6323 Z" fill="#e43137"/>
		<path d="M 28.9548 6.9677 L 28.9548 7.5871 C 28.2323 13.0581 27.5097 18.529 26.7871 23.7935 C 23.2774 25.8581 19.5613 27.9226 15.9484 29.8839 L 15.9484 18.9419 L 20.0774 18.9419 C 20.6968 20.3871 21.4194 21.9355 22.1419 23.4839 C 24.8258 23.4839 25.0323 23.4839 25.2387 23.5871 C 25.2387 23.5871 25.3419 23.4839 25.3419 23.3806 L 15.9484 3.4581 L 15.9484 2.6323 L 28.9548 6.9677 Z" fill="#b62f32"/>
		<path d="M 25.1355 23.3806 L 22.7613 23.3806 C 22.5548 23.2774 22.3484 23.2774 22.1419 23.1742 C 21.5226 21.8323 20.8 20.2839 20.0774 18.7355 L 12.129 18.7355 L 10.271 23.2774 L 7.1742 23.2774 L 15.9484 3.6645 L 25.1355 23.3806 ZM 18.9419 16.1548 L 13.3677 16.1548 L 15.9484 9.9613 L 18.9419 16.1548 Z" fill="#ffffff"/>
		<path d="M 18.8387 16.1548 L 15.9484 16.1548 L 15.9484 10.0645 L 18.8387 16.1548 Z" fill="#b62f32"/>
		<path d="M 15.9484 16.0516 L 13.471 16.0516 L 15.9484 10.1677 L 15.9484 16.0516 Z" fill="#e43137"/>
	</g>
	<g id="Camada%201">
	</g>
</svg>