<?xml version="1.0" standalone="no"?>
<!-- Generator: Adobe Fireworks 10, Export SVG Extension by Aaron Beall (http://fireworks.abeall.com) . Version: 0.6.1  -->
<!DOCTYPE svg PUBLIC "-//W3C//DTD SVG 1.1//EN" "http://www.w3.org/Graphics/SVG/1.1/DTD/svg11.dtd">
<svg id="boot.fw-P%E1gina%201" viewBox="0 0 32 32" style="background-color:#ffffff00" version="1.1"
	xmlns="http://www.w3.org/2000/svg" xmlns:xlink="http://www.w3.org/1999/xlink" xml:space="preserve"
	x="0px" y="0px" width="32px" height="32px"
>
	<g id="Camada%201">
		<rect x="0" y="0" width="32" height="32" fill="#533b78" rx="5.44" ry="5.44"/>
		<g>
			<path d="M 10.1562 25.712 C 11.0519 25.8223 12.4725 25.9325 14.2632 25.9325 C 17.5161 25.9325 19.7635 25.3811 21.17 24.1955 C 22.19 23.1864 22.8799 21.8174 22.8799 20.0129 C 22.8799 16.9016 20.63 15.3125 18.7285 14.8579 L 18.7285 14.801 C 20.5302 14.0625 21.8438 12.243 21.8438 10.1681 C 21.8438 8.4763 21.2019 7.1994 20.1333 6.4388 C 18.8768 5.4873 17.3054 5.0675 14.8641 5.0675 C 13.1524 5.0675 11.3298 5.2354 10.1562 5.4593 L 10.1562 25.712 L 10.1562 25.712 ZM 12.8438 7.1356 C 13.2366 7.0398 13.882 6.9425 15.0044 6.9425 C 17.4738 6.9425 19.1562 7.9336 19.1562 10.4554 C 19.1562 12.5303 17.6422 14.0625 15.0606 14.0625 L 12.8438 14.0625 L 12.8438 7.1356 L 12.8438 7.1356 ZM 12.8438 15.9375 L 14.8641 15.9375 C 17.7822 15.9375 20.1201 17.1194 20.1201 19.9818 C 20.1201 23.0308 17.6639 24.0575 15.0025 24.0575 C 14.0858 24.0575 13.3465 24.0264 12.8438 23.9331 L 12.8438 15.9375 L 12.8438 15.9375 Z" fill="#ffffff"/>
		</g>
	</g>
</svg>