<?xml version="1.0" standalone="no"?>
<!-- Generator: Adobe Fireworks 10, Export SVG Extension by Aaron Beall (http://fireworks.abeall.com) . Version: 0.6.1  -->
<!DOCTYPE svg PUBLIC "-//W3C//DTD SVG 1.1//EN" "http://www.w3.org/Graphics/SVG/1.1/DTD/svg11.dtd">
<svg id="corel_coreldraw_graphics_suite.fw-P%E1gina%201" viewBox="0 0 32 32" style="background-color:#ffffff00" version="1.1"
	xmlns="http://www.w3.org/2000/svg" xmlns:xlink="http://www.w3.org/1999/xlink" xml:space="preserve"
	x="0px" y="0px" width="32px" height="32px"
>
	<g id="Plano%20de%20fundo">
		<path d="M 9.625 0.125 C 11.875 5.125 14.625 10.625 20.125 15.625 C 16.625 10.625 12.625 5.125 11.125 0.125 C 12.875 -0.625 12.625 1.625 13.125 2.875 C 13.875 4.625 14.875 7.125 16.125 9.125 C 17.125 11.125 18.625 13.125 20.125 15.125 C 20.625 15.875 22.125 16.875 22.125 16.375 C 22.125 15.875 20.125 13.125 19.625 11.875 C 18.125 8.375 16.875 4.625 15.625 0.875 L 15.625 0.125 L 18.875 0.125 C 19.625 5.875 20.625 11.625 22.875 17.375 L 24.125 17.375 C 25.875 11.625 27.125 5.875 28.125 0.125 L 31.625 0.125 L 31.625 0.625 C 30.125 5.625 27.875 11.125 25.125 16.375 L 25.375 16.875 C 27.875 13.875 30.125 10.375 31.875 7.375 C 32.125 9.375 28.875 12.875 27.375 15.125 L 27.625 15.625 C 29.125 14.125 30.375 12.375 31.875 10.625 L 31.875 31.625 L 0.375 31.625 L 0.375 15.875 C 3.125 18.625 5.625 21.875 8.875 24.125 C 11.875 26.375 18.625 29.625 19.375 29.625 C 19.875 29.625 20.625 29.125 20.625 28.375 C 20.625 27.875 19.125 25.875 18.625 24.875 C 17.625 22.875 16.875 20.125 15.375 18.625 C 11.125 13.375 5.625 8.375 0.375 3.125 L 0.375 0.125 L 9.625 0.125 ZM 26.625 16.375 L 27.375 15.625 C 27.375 15.875 26.875 16.375 26.625 16.375 ZM 26.625 19.375 C 26.375 20.375 26.125 21.625 25.875 22.875 L 21.375 22.875 C 21.125 21.875 20.875 20.875 20.625 19.375 L 26.625 19.375 Z" fill="#60aa45"/>
		<path d="M 10.875 0.125 C 12.375 4.625 15.875 10.625 19.625 15.375 C 15.375 10.625 11.375 4.625 10.125 0.125 L 10.875 0.125 ZM 15.375 0.125 C 16.375 5.625 18.625 11.125 21.875 16.625 C 16.875 11.125 14.375 5.625 12.375 0.125 L 15.375 0.125 ZM 27.875 0.125 C 26.875 6.375 25.875 11.375 23.875 17.125 L 22.875 17.125 L 19.125 0.125 L 27.875 0.125 ZM 31.875 6.375 C 30.625 9.375 28.125 13.625 25.375 16.625 C 28.125 11.375 30.625 5.625 31.875 0.375 L 31.875 6.375 ZM 27.875 15.125 L 31.875 9.125 C 31.625 11.125 29.375 13.125 27.875 15.125 ZM 26.625 19.375 C 26.375 20.375 26.125 21.625 25.875 22.875 L 21.375 22.875 C 21.125 21.875 20.875 20.625 20.625 19.375 L 26.625 19.375 Z" fill="#b0d5a2"/>
		<path d="M 12.625 18.875 C 12.375 19.625 12.125 19.875 11.625 20.125 L 0.375 9.125 L 0.375 6.375 L 12.625 18.875 Z" fill="#60aa45"/>
		<path d="M 14.625 18.125 C 17.125 20.875 18.375 24.875 20.125 28.125 L 20.125 29.125 C 19.875 29.125 19.875 29.375 19.375 29.375 C 18.625 29.375 12.125 26.125 9.125 23.875 C 5.875 21.625 3.375 18.375 0.375 15.375 L 0.375 9.625 C 4.125 13.375 10.875 20.375 11.625 20.375 C 12.125 20.375 12.875 19.625 13.125 18.875 L 0.375 5.875 L 0.375 3.625 C 5.125 8.375 10.375 12.875 14.625 18.125 Z" fill="#ffffff"/>
	</g>
	<g id="Camada%201">
	</g>
</svg>