<?xml version="1.0" standalone="no"?>
<!-- Generator: Adobe Fireworks 10, Export SVG Extension by Aaron Beall (http://fireworks.abeall.com) . Version: 0.6.1  -->
<!DOCTYPE svg PUBLIC "-//W3C//DTD SVG 1.1//EN" "http://www.w3.org/Graphics/SVG/1.1/DTD/svg11.dtd">
<svg id="firebird-logo-1000.fw-P%E1gina%201" viewBox="0 0 32 32" style="background-color:#ffffff00" version="1.1"
	xmlns="http://www.w3.org/2000/svg" xmlns:xlink="http://www.w3.org/1999/xlink" xml:space="preserve"
	x="0px" y="0px" width="32px" height="32px"
>
	<g id="Plano%20de%20fundo">
		<path d="M 16.88 1.04 C 26.16 1.744 31.248 9.136 31.248 16.176 C 31.248 21.456 28.464 27.792 21.2 30.48 C 20.048 30.896 17.872 31.344 16.528 31.344 C 15.664 31.344 14.768 31.152 13.936 30.8 C 13.424 30.608 12.944 30.384 12.496 30.128 C 12.24 30 12.016 29.84 11.76 29.68 C 10.128 28.752 9.04 26.928 8.592 25.584 C 8.432 25.04 8.24 24.464 8.112 23.888 C 7.952 23.248 7.792 22 7.792 21.936 L 7.792 20.304 C 7.824 20.112 7.856 19.888 7.888 19.728 C 7.952 19.472 8.048 19.184 8.144 18.896 C 8.848 16.848 11.376 15.536 13.008 15.056 C 13.168 15.024 13.328 14.864 13.488 14.8 C 13.84 14.608 14.416 14.128 14.576 13.744 C 14.608 13.648 14.672 13.488 14.672 13.392 C 14.672 12.304 13.136 11.792 12.624 11.792 C 12.08 11.792 10.864 11.888 10.704 12.784 C 9.968 12.464 8.976 11.92 8.976 11.152 C 8.976 10.448 9.712 9.744 10.544 9.36 C 10.768 9.232 11.248 9.2 11.344 9.2 L 12.304 9.2 C 12.304 9.2 12.336 9.2 12.336 9.136 C 12.336 9.04 12.24 8.56 12.24 8.496 C 12.24 7.728 12.624 7.408 13.296 7.408 C 14.288 7.408 17.712 9.104 19.632 9.104 C 19.952 9.104 20.816 8.976 20.624 8.304 C 20.688 8.528 20.752 8.88 20.752 8.944 C 20.752 9.616 20.176 9.712 19.824 9.712 C 19.76 9.712 18.64 9.616 18.576 9.616 C 18.192 9.616 17.744 9.552 17.36 9.936 C 19.216 10.992 20.848 11.76 20.848 13.584 C 20.848 16.88 17.808 18.48 17.808 20.144 C 17.808 21.2 18.928 21.872 19.76 21.872 C 20.144 21.872 21.68 21.584 21.776 21.584 C 22.096 21.52 22.512 21.392 22.896 21.264 C 23.248 21.136 23.6 20.944 24.016 20.752 C 26.576 19.376 27.536 16.688 27.856 14.672 C 27.952 14.032 28.016 13.36 28.08 12.72 L 28.08 11.216 C 27.952 10.672 27.824 10.032 27.632 9.456 C 27.472 9.04 27.312 8.592 27.12 8.208 C 25.36 4.496 21.136 2.448 18.256 1.488 C 17.776 1.328 17.296 1.2 16.816 1.04 L 16.88 1.04 ZM 15.184 9.168 L 13.712 9.168 C 13.712 9.104 13.68 9.008 13.68 8.912 C 13.68 8.72 13.712 8.592 13.936 8.592 C 14.288 8.592 14.864 8.944 15.184 9.168 Z" fill="#f5790c"/>
		<path d="M 12.272 1.872 C 5.936 4.528 2.864 9.456 2.864 14.352 C 2.864 15.024 2.928 15.792 3.056 16.528 C 3.12 17.008 3.248 17.488 3.408 17.968 C 3.536 18.416 3.696 18.896 3.92 19.376 C 4.08 19.76 4.272 20.144 4.464 20.528 C 4.688 20.944 4.944 21.392 5.2 21.808 C 5.616 22.48 6.128 23.184 6.672 23.856 C 6.896 24.144 7.248 24.4 7.408 24.784 C 7.536 25.104 7.536 25.488 7.632 25.84 C 7.728 26.256 7.984 26.832 8.24 27.312 C 8.752 28.272 9.776 29.456 10.832 30.384 C 10.608 30.288 10.352 30.128 10.128 30.032 C 7.888 29.168 4.656 26.608 3.248 24.112 C 3.12 23.856 2.928 23.6 2.8 23.344 C 2.64 22.992 2.448 22.576 2.256 22.224 C 2.128 21.904 2 21.552 1.872 21.264 C 1.744 20.848 1.584 20.432 1.488 20.016 C 1.36 19.504 1.264 18.96 1.168 18.48 C 1.104 17.968 1.008 16.944 1.008 16.88 L 1.008 15.44 C 1.04 14.352 1.264 13.264 1.52 12.176 C 2.256 9.168 4.816 5.136 8.432 3.12 C 8.848 2.896 9.36 2.608 9.84 2.384 C 10.192 2.192 10.608 2.032 11.024 1.904 C 11.568 1.712 12.208 1.552 12.784 1.392 C 13.456 1.232 14.224 1.136 14.96 1.072 C 14.192 1.2 13.136 1.488 12.272 1.872 Z" fill="#f5790c"/>
	</g>
	<g id="Camada%201">
	</g>
</svg>