<?xml version="1.0" standalone="no"?>
<!-- Generator: Adobe Fireworks 10, Export SVG Extension by Aaron Beall (http://fireworks.abeall.com) . Version: 0.6.1  -->
<!DOCTYPE svg PUBLIC "-//W3C//DTD SVG 1.1//EN" "http://www.w3.org/Graphics/SVG/1.1/DTD/svg11.dtd">
<svg id="javascript-logo.fw-P%E1gina%201" viewBox="0 0 28 32" style="background-color:#ffffff00" version="1.1"
	xmlns="http://www.w3.org/2000/svg" xmlns:xlink="http://www.w3.org/1999/xlink" xml:space="preserve"
	x="0px" y="0px" width="28px" height="32px"
>
	<g id="Plano%20de%20fundo">
		<path d="M 27.8779 0.041 L 25.3547 28.6769 L 13.9593 31.8769 L 2.6453 28.6769 L 0.1221 0.041 L 27.8779 0.041 ZM 25.3547 2.5846 L 25.3547 2.8308 C 24.6221 10.8718 23.8895 18.9128 23.157 26.9538 C 20.2267 27.8564 17.1337 28.759 14.1221 29.4974 L 14.1221 2.5846 L 25.3547 2.5846 ZM 12.9012 6.1949 L 12.9012 24.9026 L 12.5756 24.9026 L 4.7616 22.6051 L 4.7616 19.4051 L 10.1337 20.8821 L 10.1337 6.1949 L 12.9012 6.1949 Z" fill="#d6ba32"/>
		<path d="M 25.3547 2.5026 C 25.3547 2.5026 25.436 2.4205 25.436 2.6667 C 25.436 2.8308 23.9709 18.9949 23.157 27.0359 C 20.3081 27.9385 14.5291 29.5795 14.2849 29.5795 L 14.0407 29.5795 L 14.0407 2.5026 L 25.3547 2.5026 ZM 23.9709 6.1949 C 23.8895 7.8359 23.8081 8.6564 23.7267 9.4769 L 17.8663 9.4769 L 17.8663 14.4821 L 23.4012 13.8256 L 22.6686 23.0154 L 15.0988 24.9026 L 15.0988 21.7846 C 15.0988 21.7846 15.1802 21.7026 15.1802 21.6205 C 16.4012 21.2923 17.6221 20.8821 18.843 20.6359 C 19.25 20.4718 19.9012 20.3897 20.4709 20.1436 C 20.5523 19.9795 20.5523 19.7333 20.5523 19.4872 C 20.6337 18.8308 20.6337 18.1744 20.7151 17.518 C 20.6337 17.4359 20.4709 17.4359 20.3895 17.4359 L 15.0988 18.3385 L 15.0988 6.1949 L 23.9709 6.1949 Z" fill="#ffda3e"/>
		<path d="M 12.8198 6.2769 L 12.8198 24.9026 L 4.843 22.6872 L 4.843 19.4872 L 10.0523 20.9641 L 10.2151 20.8821 L 10.2151 6.2769 L 12.8198 6.2769 Z" fill="#ffffff"/>
		<path d="M 23.9709 6.2769 C 23.8895 7.2615 23.7267 8.3282 23.6453 9.3949 L 17.7849 9.3949 L 17.7849 14.5641 L 23.3198 13.9077 L 22.5872 22.9333 L 15.1802 24.8205 L 15.1802 21.7026 C 16.8895 21.2923 18.6802 20.8 20.4709 20.2256 C 20.5523 20.2256 20.6337 20.1436 20.6337 20.0615 C 20.6337 19.7333 20.6337 19.3231 20.7151 18.9128 L 20.7151 17.3538 L 15.1802 18.2564 L 15.1802 6.2769 L 23.9709 6.2769 Z" fill="#ffffff"/>
	</g>
	<g id="Camada%201">
	</g>
</svg>