<?xml version="1.0" standalone="no"?>
<!-- Generator: Adobe Fireworks 10, Export SVG Extension by Aaron Beall (http://fireworks.abeall.com) . Version: 0.6.1  -->
<!DOCTYPE svg PUBLIC "-//W3C//DTD SVG 1.1//EN" "http://www.w3.org/Graphics/SVG/1.1/DTD/svg11.dtd">
<svg id="1428826983_5-512.fw-P%E1gina%201" viewBox="0 0 32 32" style="background-color:#ffffff00" version="1.1"
	xmlns="http://www.w3.org/2000/svg" xmlns:xlink="http://www.w3.org/1999/xlink" xml:space="preserve"
	x="0px" y="0px" width="32px" height="32px"
>
	<g id="Plano%20de%20fundo">
		<path d="M 28.8438 0.4063 C 29.9688 0.4063 31.5938 1.9063 31.5938 2.9688 L 31.5938 28.9688 C 31.5313 29.9063 30.0313 31.5938 28.9688 31.5938 L 2.9688 31.5938 C 1.9688 31.5938 0.4063 30.0313 0.4063 29.0313 L 0.4063 3.0313 C 0.2813 1.9063 2.0938 0.2813 3.1563 0.4063 L 28.8438 0.4063 ZM 10.2188 6.9688 C 10.2188 8.7813 8.7813 9.3438 7.4688 9.3438 C 6.0313 9.3438 4.7813 8.5938 4.7813 6.9688 C 4.7813 5.3438 6.0313 4.4063 7.5313 4.4063 C 9.0938 4.4063 10.2188 5.3438 10.2188 6.9688 ZM 27.8438 17.9063 L 27.8438 27.8438 L 23.5313 27.8438 L 23.5313 18.2813 C 23.3438 16.5313 22.5938 15.5313 21.0313 15.5313 C 20.8438 15.5313 20.4063 15.5313 20.2188 15.5938 C 19.9688 15.6563 19.4063 16.0313 19.2188 16.3438 C 19.0938 16.4688 18.4688 17.7188 18.4688 18.1563 L 18.4688 27.8438 L 13.5313 27.8438 L 13.5313 11.7188 L 17.8438 11.7188 L 17.9063 14.2813 C 19.5313 11.9688 21.0313 11.3438 22.8438 11.3438 C 27.0313 11.3438 27.8438 15.0938 27.8438 17.9063 ZM 9.5313 11.7188 L 9.5313 27.8438 L 4.8438 27.8438 L 4.8438 11.7188 L 9.5313 11.7188 Z" fill="#333333"/>
		<path d="M 10.2813 6.9688 C 10.2813 8.7188 8.7188 9.4063 7.4688 9.4063 C 6.0313 9.4063 4.7813 8.5313 4.7813 6.9688 C 4.7813 5.2813 6.0313 4.4063 7.5313 4.4063 C 9.0313 4.4063 10.2813 5.3438 10.2813 6.9688 ZM 27.6563 16.0313 C 27.7188 16.3438 27.8438 17.0938 27.8438 17.2813 L 27.8438 27.9063 L 23.5313 27.9063 L 23.5313 18.7813 C 23.3438 16.9063 22.8438 15.5313 21.0313 15.5313 C 19.2813 15.5313 18.4688 17.3438 18.4688 18.5938 L 18.4688 27.9063 L 13.4688 27.9063 L 13.4688 11.6563 L 17.8438 11.6563 L 17.9063 14.2188 C 19.5938 11.9063 21.0938 11.3438 22.8438 11.3438 C 25.4063 11.3438 27.1563 12.5938 27.6563 16.0313 ZM 9.5938 11.6563 L 9.5938 27.9063 L 4.7813 27.9063 L 4.7813 11.6563 L 9.5938 11.6563 Z" fill="#ffffff"/>
	</g>
	<g id="Camada%201">
	</g>
</svg>