<?xml version="1.0" standalone="no"?>
<!-- Generator: Adobe Fireworks 10, Export SVG Extension by Aaron Beall (http://fireworks.abeall.com) . Version: 0.6.1  -->
<!DOCTYPE svg PUBLIC "-//W3C//DTD SVG 1.1//EN" "http://www.w3.org/Graphics/SVG/1.1/DTD/svg11.dtd">
<svg id="Materialize.fw-P%E1gina%201" viewBox="0 0 49 32" style="background-color:#ffffff00" version="1.1"
	xmlns="http://www.w3.org/2000/svg" xmlns:xlink="http://www.w3.org/1999/xlink" xml:space="preserve"
	x="0px" y="0px" width="49px" height="32px"
>
	<g id="Plano%20de%20fundo">
		<path d="M 8.5986 16.8235 C 9.3053 17.0588 9.7764 17.5294 9.7764 18 C 9.7764 19.1765 7.6563 26.2353 7.1851 27.4118 L 6.4784 27.4118 C 4.3582 24.1176 5.7716 19.6471 2.0024 16.8235 L 8.5986 16.8235 Z" fill="#e896a0"/>
		<path d="M 20.1418 4.3529 C 16.3726 12.1176 17.0793 19.8824 13.7813 27.4118 L 7.1851 27.4118 C 10.4832 19.8824 10.012 11.8824 13.5457 4.3529 L 20.1418 4.3529 Z" fill="#dd686d"/>
		<path d="M 21.0841 4.3529 C 22.262 6.4706 24.6178 15.8824 24.6178 16.5882 C 24.6178 17.2941 22.9688 24.8235 21.5553 27.4118 L 20.8486 27.4118 C 19.6707 25.2941 17.3149 15.1765 17.3149 14.2353 C 17.3149 13.2941 19.4351 5.5294 20.1418 4.3529 L 21.0841 4.3529 Z" fill="#e896a0"/>
		<path d="M 34.512 4.3529 C 30.9784 11.6471 31.6851 19.6471 28.1514 27.4118 L 21.5553 27.4118 C 23.6755 23.4118 23.9111 18.9412 24.8534 14.9412 C 25.3245 11.6471 26.0313 7.8824 27.6803 4.5882 C 27.9159 4.5882 28.387 4.3529 28.6226 4.3529 L 34.512 4.3529 Z" fill="#dd686d"/>
		<path d="M 35.4543 4.3529 C 35.9255 5.0588 36.3966 6 36.6322 6.9412 C 37.8101 10.4706 39.2236 17.5294 39.2236 18 C 39.2236 18.7059 38.5168 19.1765 38.5168 19.6471 C 37.8101 22 38.0457 24.8235 36.1611 27.4118 L 34.9832 27.4118 C 34.0409 25.2941 31.6851 15.1765 31.6851 14.4706 C 31.6851 13.2941 34.0409 5.2941 34.512 4.3529 L 35.4543 4.3529 Z" fill="#e896a0"/>
		<path d="M 47.2332 16.8235 C 42.7572 19.1765 45.113 23.8824 42.5216 27.4118 L 36.1611 27.4118 C 39.2236 24.5882 36.8678 17.7647 41.3438 16.8235 L 47.2332 16.8235 Z" fill="#dd686d"/>
	</g>
	<g id="Camada%201">
	</g>
</svg>