<?xml version="1.0" standalone="no"?>
<!-- Generator: Adobe Fireworks 10, Export SVG Extension by Aaron Beall (http://fireworks.abeall.com) . Version: 0.6.1  -->
<!DOCTYPE svg PUBLIC "-//W3C//DTD SVG 1.1//EN" "http://www.w3.org/Graphics/SVG/1.1/DTD/svg11.dtd">
<svg id="mysql.fw-P%E1gina%201" viewBox="0 0 29 32" style="background-color:#ffffff00" version="1.1"
	xmlns="http://www.w3.org/2000/svg" xmlns:xlink="http://www.w3.org/1999/xlink" xml:space="preserve"
	x="0px" y="0px" width="29px" height="32px"
>
	<g id="Plano%20de%20fundo">
		<path d="M 28.9505 0.0498 L 26.4761 28.6604 L 14.5 31.9502 L 2.7218 28.9595 L 0.0495 0.2492 L 0.1485 0.0498 L 28.9505 0.0498 ZM 25.8823 2.7414 C 25.1894 10.6168 24.4966 18.4922 23.7048 26.2679 C 20.6365 27.1651 17.3703 28.0623 14.2031 29.0592 L 14.2031 9.8193 C 12.9164 8.6231 11.4317 7.1277 10.1451 6.729 C 9.1553 6.4299 8.0666 6.5296 7.1758 6.1308 C 6.384 5.9315 5.6911 5.2336 4.9983 4.8349 L 4.7014 4.8349 L 4.7014 5.433 C 5.4932 7.028 5.8891 8.7227 7.5717 10.4174 C 8.1655 10.9159 8.3635 11.215 8.3635 11.7134 C 8.3635 11.9128 7.3737 14.405 7.3737 14.6044 C 7.3737 14.9034 7.6706 16.1994 7.9676 16.8972 C 8.0666 17.0966 8.2645 17.3956 8.4625 17.6947 C 8.5614 17.6947 8.6604 17.595 8.6604 17.4953 C 8.6604 17.1963 8.6604 16.6978 8.6604 16.3988 C 8.6604 15.9003 8.7594 14.7041 9.5512 14.7041 C 10.0461 14.7041 12.0256 17.6947 13.1143 19.3894 C 11.6297 18.4922 10.541 17.0966 9.6502 15.6012 C 9.5512 15.6012 9.3532 15.6012 9.3532 15.9003 L 9.3532 17.6947 C 8.9573 18.1931 8.8584 18.3925 8.6604 18.3925 C 7.3737 18.3925 6.6809 15.0031 6.6809 14.7041 C 6.6809 14.0062 7.6706 12.4112 7.6706 11.8131 C 7.6706 11.0156 6.186 10.0187 5.6911 9.2212 C 5.3942 8.7227 4.0085 6.0312 4.0085 5.2336 C 4.0085 4.7352 4.2065 4.1371 4.8003 4.1371 C 5.4932 4.1371 6.8788 5.433 7.4727 5.5327 C 8.2645 5.7321 9.2543 5.8318 10.1451 6.0312 C 11.2338 6.2305 12.9164 7.6262 14.1041 8.7227 L 14.1041 2.243 L 25.8823 2.243 L 25.8823 2.7414 ZM 9.2543 8.2243 C 9.4522 8.4237 9.6502 8.4237 9.8481 8.7227 L 9.2543 8.7227 C 9.0563 8.5234 8.9573 8.324 8.9573 8.1246 C 8.9573 7.8255 9.0563 7.9252 9.2543 7.8255 C 9.3532 7.9252 9.2543 8.1246 9.2543 8.2243 Z" fill="#003f7d"/>
		<path d="M 25.7833 2.3427 C 25.7833 2.3427 25.8823 2.243 25.8823 2.5421 C 25.8823 2.7414 24.4966 18.3925 23.7048 26.1682 C 20.7355 27.1651 17.5683 28.0623 14.5 28.9595 L 14.2031 28.9595 L 14.2031 9.919 C 15.2918 11.0156 16.2816 12.7103 16.4795 13.9065 C 16.9744 16.7975 20.1416 17.6947 21.6263 18.891 C 21.2304 18.7913 20.6365 18.6916 20.3396 18.6916 C 19.6468 18.6916 19.2509 19.0903 19.2509 19.5888 C 19.2509 20.6854 20.9334 21.9813 22.0222 22.6791 C 22.1212 22.7788 22.2201 22.8785 22.4181 22.7788 C 21.7253 21.8816 20.8345 20.8847 20.0427 19.8878 L 20.0427 19.5888 C 21.1314 19.2897 21.0324 19.6885 21.6263 19.6885 C 22.1212 19.6885 22.4181 19.3894 22.4181 18.9907 C 22.4181 18.4922 21.8242 17.8941 21.2304 17.4953 C 19.9437 16.5981 17.7662 15.8006 17.3703 14.1059 C 16.6775 11.1153 14.2031 8.9221 14.2031 8.6231 L 14.2031 2.3427 L 25.7833 2.3427 Z" fill="#dc7027"/>
		<path d="M 7.3737 5.5327 C 7.9676 5.8318 8.8584 5.8318 9.5512 5.9315 C 11.8276 6.3302 15.2918 9.4206 16.4795 12.0125 C 16.8754 12.7103 17.1724 13.6075 17.3703 14.405 C 17.8652 16 20.1416 16.7975 21.2304 17.595 C 21.7253 17.9938 22.3191 18.5919 22.3191 18.9907 C 22.3191 19.5888 21.7253 19.5888 21.6263 19.5888 C 21.4283 19.5888 21.0324 19.4891 20.0427 19.3894 C 19.9437 19.4891 19.9437 19.3894 19.9437 19.6885 C 19.9437 20.3863 21.9232 22.2804 22.3191 22.7788 C 21.5273 22.4798 19.3498 20.6854 19.3498 19.5888 C 19.3498 18.7913 20.0427 18.7913 20.3396 18.7913 C 20.6365 18.7913 21.1314 18.891 21.7253 18.891 C 20.5375 17.595 19.3498 17.2959 18.1621 16.3988 C 16.6775 15.4019 16.6775 13.5078 15.9846 12.3115 C 14.8959 10.1184 12.3225 7.5265 10.244 6.729 C 9.2543 6.3302 8.1655 6.4299 7.2747 6.1308 C 6.4829 5.9315 5.7901 5.2336 5.0973 4.8349 L 4.8003 4.8349 C 4.7014 4.9346 4.7014 5.0343 4.7014 5.2336 C 4.7014 6.1308 5.9881 8.6231 6.285 9.0218 C 6.7799 9.7196 7.5717 10.4174 8.0666 11.1153 C 8.2645 11.215 8.2645 11.514 8.2645 11.8131 C 8.2645 12.6106 7.3737 13.7072 7.3737 14.6044 C 7.3737 15.4019 8.1655 17.595 8.5614 17.7944 C 9.0563 17.3956 8.6604 16.5981 8.6604 16.0997 C 8.6604 15.6012 8.9573 14.8037 9.5512 14.8037 C 9.8481 14.8037 10.0461 15.0031 10.1451 15.2025 C 11.0358 16.3988 12.0256 17.8941 13.1143 19.2897 C 11.6297 18.5919 10.343 16.6978 9.6502 15.5016 C 8.9573 15.7009 9.8481 18.3925 8.5614 18.3925 C 7.2747 18.3925 6.7799 14.8037 6.7799 14.6044 C 6.7799 13.6075 7.7696 12.4112 7.7696 11.8131 C 7.7696 11.3146 6.186 10.0187 5.8891 9.5202 C 5.6911 9.1215 4.1075 6.0312 4.1075 5.134 C 4.1075 4.6355 4.1075 4.2368 4.8003 4.2368 C 5.5922 4.2368 6.5819 5.2336 7.3737 5.5327 ZM 9.8481 8.5234 C 9.7491 8.6231 9.7491 8.7227 9.4522 8.7227 C 9.2543 8.7227 9.1553 8.5234 9.0563 8.4237 L 9.1553 7.8255 C 9.1553 7.9252 9.2543 8.6231 9.8481 8.5234 Z" fill="#ffffff"/>
	</g>
	<g id="Camada%201">
	</g>
</svg>