<?xml version="1.0" standalone="no"?>
<!-- Generator: Adobe Fireworks 10, Export SVG Extension by Aaron Beall (http://fireworks.abeall.com) . Version: 0.6.1  -->
<!DOCTYPE svg PUBLIC "-//W3C//DTD SVG 1.1//EN" "http://www.w3.org/Graphics/SVG/1.1/DTD/svg11.dtd">
<svg id="nodejs_200_200.fw-P%E1gina%201" viewBox="0 0 32 32" style="background-color:#ffffff00" version="1.1"
	xmlns="http://www.w3.org/2000/svg" xmlns:xlink="http://www.w3.org/1999/xlink" xml:space="preserve"
	x="0px" y="0px" width="32px" height="32px"
>
	<g id="Plano%20de%20fundo">
		<path d="M 27.92 8.08 C 28.4 8.4 28.88 9.04 28.88 9.52 L 28.88 22.32 C 28.72 22.96 28.4 23.44 27.92 23.76 C 26.8 24.4 17.36 30.32 15.92 30.32 C 14.64 30.32 11.6 28.08 11.12 27.76 C 11.76 27.44 12.56 26.96 12.88 26.96 C 13.36 26.96 15.12 28.08 15.92 28.56 L 27.12 22.32 L 27.12 9.68 L 15.92 3.44 L 4.88 9.68 L 4.88 22.16 C 5.2 22.8 8.24 24.4 9.04 24.4 C 10 24.4 10.16 24.08 10.8 23.12 L 10.8 10.8 L 12.56 10.8 L 12.56 23.12 C 12.08 25.52 10.8 26.16 9.36 26.16 C 8.72 26.16 3.12 24.24 3.12 22.48 L 3.12 9.52 C 3.28 9.04 3.6 8.4 4.08 8.08 C 4.08 7.92 14.64 1.68 15.92 1.68 C 17.36 1.68 26.96 7.44 27.92 8.08 Z" fill="#83cd29"/>
		<path d="M 24.08 13.36 L 24.08 14.16 C 23.76 14.32 23.6 14.32 23.12 14.32 C 22.8 14.32 22.64 14.32 22.32 14 C 21.84 11.92 20.08 12.08 18.96 12.08 C 18 12.08 16.08 12.08 16.08 13.68 C 16.08 16.08 24.56 13.52 24.56 18.32 C 24.56 21.52 21.2 21.84 19.28 21.84 C 17.36 21.84 13.68 21.52 13.68 18.32 C 13.68 17.68 14.64 17.84 14.64 17.84 C 14.96 17.84 15.28 17.68 15.44 18.16 C 15.6 18.48 15.92 19.28 16.4 19.6 C 17.2 20.24 18.32 20.24 19.12 20.24 C 20.24 20.24 22.64 20.24 22.64 18.48 C 22.64 15.6 14.16 18.32 14.16 13.68 C 14.16 10.64 17.2 10.48 18.96 10.48 C 20.56 10.48 24.08 10.8 24.08 13.36 Z" fill="#83cd29"/>
	</g>
	<g id="Camada%201">
	</g>
</svg>