<?xml version="1.0" standalone="no"?>
<!-- Generator: Adobe Fireworks 10, Export SVG Extension by Aaron Beall (http://fireworks.abeall.com) . Version: 0.6.1  -->
<!DOCTYPE svg PUBLIC "-//W3C//DTD SVG 1.1//EN" "http://www.w3.org/Graphics/SVG/1.1/DTD/svg11.dtd">
<svg id="cordova.fw-P%E1gina%201" viewBox="0 0 34 32" style="background-color:#ffffff00" version="1.1"
	xmlns="http://www.w3.org/2000/svg" xmlns:xlink="http://www.w3.org/1999/xlink" xml:space="preserve"
	x="0px" y="0px" width="34px" height="32px"
>
	<g id="Plano%20de%20fundo">
		<path d="M 26.2244 0.0476 L 33.9517 12.2381 L 30.8608 31.9524 L 25.4517 31.9524 L 25.8381 27.381 L 23.1335 27.381 C 22.6506 28.9048 22.7472 30.4286 22.6506 31.9524 L 11.3494 31.9524 L 10.9631 27.381 L 8.1619 27.381 L 8.5483 31.9524 L 3.1392 31.9524 L 0.0483 12.2381 L 7.7756 0.0476 L 26.2244 0.0476 ZM 14.1506 6.1429 C 14.054 7 13.9574 7.5714 13.8608 8.3333 L 20.0426 8.3333 C 20.0426 8.3333 20.1392 8.4286 20.1392 8.2381 C 20.1392 7.9524 19.946 6.9048 19.8494 6.1429 L 24.679 6.1429 L 27.7699 12.3333 L 26.2244 24.3333 L 7.7756 24.3333 L 6.2301 12.2381 L 9.321 12.2381 C 9.2244 12.1429 9.0313 12.1429 6.2301 12.1429 L 9.321 6.1429 L 14.1506 6.1429 Z" fill="#bbbbbb"/>
		<path d="M 14.1506 6.1429 C 14.054 7.1905 13.9574 7.7619 13.8608 8.3333 L 20.1392 8.3333 C 20.0426 7.4762 19.946 6.9048 19.8494 6.1429 L 24.679 6.1429 L 27.7699 12.2381 L 26.1278 24.3333 L 7.7756 24.3333 L 6.2301 12.3333 L 9.2244 6.1429 L 14.1506 6.1429 ZM 23.1335 17.4762 C 23.1335 18.0476 22.9403 20.4286 21.9744 20.4286 C 21.0085 20.4286 20.9119 17.5714 20.9119 17.4762 C 20.9119 17 21.0085 14.5238 21.9744 14.5238 C 22.9403 14.5238 23.1335 17.2857 23.1335 17.4762 ZM 13.1847 18.9048 C 13.0881 19 13.3778 19.0952 13.3778 19.381 C 13.3778 19.7619 12.7017 20.8095 12.2188 20.8095 C 11.929 20.8095 11.3494 20.2381 11.3494 19.9524 C 11.3494 19.7619 11.5426 20.0476 11.5426 19.8571 C 11.5426 19.5714 11.2528 18.1429 11.2528 17.9524 C 11.2528 17.6667 11.3494 14.9048 12.2188 14.9048 C 13.3778 14.9048 13.2813 17.9524 13.1847 18.9048 Z" fill="#2d3b48"/>
		<path id="Elipse" d="M 11.108 17.7619 C 11.108 15.9998 11.6269 14.5714 12.267 14.5714 C 12.9072 14.5714 13.4261 15.9998 13.4261 17.7619 C 13.4261 19.524 12.9072 20.9524 12.267 20.9524 C 11.6269 20.9524 11.108 19.524 11.108 17.7619 Z" fill="#1af3ff"/>
		<path id="Elipse2" d="M 20.8636 17.6667 C 20.8636 15.9046 21.3826 14.4762 22.0227 14.4762 C 22.6629 14.4762 23.1818 15.9046 23.1818 17.6667 C 23.1818 19.4287 22.6629 20.8571 22.0227 20.8571 C 21.3826 20.8571 20.8636 19.4287 20.8636 17.6667 Z" fill="#1af3ff"/>
	</g>
	<g id="Camada%201">
	</g>
</svg>