<?xml version="1.0" standalone="no"?>
<!-- Generator: Adobe Fireworks 10, Export SVG Extension by Aaron Beall (http://fireworks.abeall.com) . Version: 0.6.1  -->
<!DOCTYPE svg PUBLIC "-//W3C//DTD SVG 1.1//EN" "http://www.w3.org/Graphics/SVG/1.1/DTD/svg11.dtd">
<svg id="php.fw-P%E1gina%201" viewBox="0 0 32 32" style="background-color:#ffffff00" version="1.1"
	xmlns="http://www.w3.org/2000/svg" xmlns:xlink="http://www.w3.org/1999/xlink" xml:space="preserve"
	x="0px" y="0px" width="32px" height="32px"
>
	<g id="Camada%201">
		<rect x="0" y="0" width="32" height="32" fill="#5a69a6" rx="5.44" ry="5.44"/>
		<path d="M 15.8324 8 C 15.6648 9.0706 15.4972 9.9765 15.2458 10.8824 C 15.3296 10.9647 15.4972 10.9647 18.1788 10.9647 C 19.0168 10.8 21.1955 11.5412 20.8603 13.1059 L 19.771 19.0353 L 17.4246 19.0353 L 18.4302 13.6824 C 18.5978 12.7765 17.5084 12.6118 17.0056 12.6118 L 15.0782 12.6118 C 14.324 14.7529 14.0726 16.8941 13.6536 19.0353 L 11.3073 19.0353 L 13.486 8 L 15.8324 8 ZM 8.3743 10.9647 C 10.5531 10.9647 11.7263 12.5294 11.7263 14.0118 C 11.7263 15.8235 10.5531 18.2941 7.8715 18.8706 C 7.7039 18.8706 7.4525 19.0353 7.2011 19.0353 L 4.0168 19.0353 C 3.7654 20.0235 3.5978 21.0118 3.3464 22 L 1 22 L 3.1788 10.9647 L 8.3743 10.9647 ZM 27.648 10.9647 C 30.0782 11.1294 31 12.2824 31 14.0941 C 31 16.7294 28.905 19.0353 26.4749 19.0353 L 23.3743 19.0353 C 23.1229 20.0235 22.8715 21.0118 22.7039 22 L 20.3575 22 L 22.5363 10.9647 L 27.648 10.9647 ZM 7.6201 12.6941 C 8.9609 12.9412 9.1285 13.3529 9.1285 14.1765 C 9.1285 15.6588 8.2905 17.3059 6.5307 17.3059 L 4.352 17.3059 L 5.2737 12.6941 L 7.6201 12.6941 ZM 26.9777 12.6941 C 28.1508 12.6941 28.486 13.4353 28.486 14.2588 C 28.486 15.4118 27.8156 17.3059 25.8883 17.3059 L 23.7095 17.3059 L 24.6313 12.6941 L 26.9777 12.6941 Z" fill="#ffffff"/>
		<path d="M 9.1285 14.1765 C 9.1285 15.6588 8.2905 17.3059 6.3631 17.3059 L 4.4358 17.3059 L 5.2737 12.7765 L 6.5307 12.7765 C 7.4525 12.7765 9.1285 12.5294 9.1285 14.1765 ZM 28.486 14.1765 C 28.486 15.6588 27.5642 17.3059 25.7207 17.3059 L 23.7933 17.3059 L 24.6313 12.7765 L 27.1453 12.7765 C 28.1508 12.7765 28.486 13.6 28.486 14.1765 Z" fill="#5a69a6"/>
	</g>
</svg>