<?xml version="1.0" standalone="no"?>
<!-- Generator: Adobe Fireworks 10, Export SVG Extension by Aaron Beall (http://fireworks.abeall.com) . Version: 0.6.1  -->
<!DOCTYPE svg PUBLIC "-//W3C//DTD SVG 1.1//EN" "http://www.w3.org/Graphics/SVG/1.1/DTD/svg11.dtd">
<svg id="1428826971_skype.fw-P%E1gina%201" viewBox="0 0 32 32" style="background-color:#ffffff00" version="1.1"
	xmlns="http://www.w3.org/2000/svg" xmlns:xlink="http://www.w3.org/1999/xlink" xml:space="preserve"
	x="0px" y="0px" width="32px" height="32px"
>
	<g id="Plano%20de%20fundo">
		<path d="M 11.7188 0.7188 C 12.4063 0.9688 13.5938 1.5938 13.7188 1.5938 C 13.9063 1.5938 16.0313 1.4063 16.2188 1.4063 C 24.2188 1.4063 31.2188 7.7813 31.2188 16.1563 C 31.2188 16.2813 31.1563 16.7188 31.1563 17.0313 C 31.0313 17.7813 30.8438 19.1563 30.8438 19.2813 C 30.8438 19.4688 31.2188 20.2188 31.3438 20.6563 C 31.5938 21.3438 31.7813 22.3438 31.7813 23.1563 C 31.7813 28.2188 27.3438 31.7188 22.9063 31.7188 C 21.2188 31.7188 18.9688 30.7188 18.7813 30.7188 C 18.6563 30.7188 17.9688 30.8438 17.5313 30.8438 C 17.0938 30.9063 16.3438 30.9063 16.2188 30.9063 C 10.9063 30.9063 4.7188 28.2188 1.9063 20.9688 C 1.8438 20.7813 1.1563 18.0313 1.1563 17.4063 L 1.1563 14.9063 C 1.2188 14.4063 1.4063 13.4063 1.4063 13.2813 C 1.4063 13.0313 0.2188 11.0313 0.2188 8.9688 C 0.2188 4.0313 4.0938 0.2813 8.9688 0.2813 C 9.8438 0.2813 10.9063 0.4063 11.7188 0.7188 ZM 23.9688 10.6563 C 23.9688 12.0313 22.8438 12.7188 21.7813 12.7188 C 19.0938 12.7188 20.1563 8.9688 15.8438 8.9688 C 14.9688 8.9688 12.2188 9.1563 12.2188 11.0938 C 12.2188 14.8438 24.9063 12.0938 24.9063 19.9688 C 24.9063 25.2188 19.0313 26.2813 16.0313 26.2813 C 13.5313 26.2813 9.2813 25.5938 7.7813 22.2188 C 7.5313 21.6563 7.3438 20.9688 7.3438 20.4063 C 7.3438 19.0938 8.4688 18.4688 9.4688 18.4688 C 12.5313 18.4688 10.9063 23.0313 15.9063 23.0313 C 17.6563 23.0313 20.2188 22.3438 20.2188 20.3438 C 20.2188 18.4063 17.7188 17.9688 16.4063 17.5938 C 13.8438 16.9688 10.8438 16.9688 8.4688 14.0938 C 8.1563 13.7188 7.7813 12.7188 7.7813 12.2188 L 7.7813 10.6563 C 8.2188 7.1563 12.4063 5.9063 14.7813 5.8438 C 15.9063 5.7813 16.1563 5.7813 17.2813 5.8438 C 19.4063 5.8438 23.9688 7.5313 23.9688 10.6563 Z" fill="#333333"/>
		<path d="M 18.6563 6.0313 C 20.8438 6.3438 23.9688 8.2813 23.9688 10.7188 C 23.9688 12.0313 22.6563 12.7188 21.7813 12.7188 C 18.9688 12.7188 20.3438 8.9688 15.7813 8.9688 C 14.9063 8.9688 12.1563 9.1563 12.1563 11.0938 C 12.1563 14.7813 24.9063 12.2813 24.9063 19.9688 C 24.9063 23.6563 21.4063 25.9688 17.4688 26.2188 C 16.4063 26.2813 16.1563 26.2813 16.0313 26.2813 C 13.6563 26.2813 9.9688 25.7188 8.0938 22.7188 C 7.6563 22.0313 7.3438 21.0313 7.3438 20.4063 C 7.3438 19.0313 8.5938 18.4688 9.4688 18.4688 C 12.6563 18.4688 10.6563 23.0313 15.9688 23.0313 C 17.2813 23.0313 20.2188 22.5938 20.2188 20.3438 C 20.2188 18.2813 17.4688 17.9063 16.2188 17.5313 C 13.5313 16.7813 9.3438 16.7188 7.9063 12.7813 C 7.8438 12.5938 7.7813 12.2188 7.7813 12.0938 L 7.7813 10.8438 C 8.5313 6.4063 13.2188 5.8438 16.0313 5.8438 C 16.8438 5.8438 17.7813 5.9063 18.6563 6.0313 Z" fill="#ffffff"/>
	</g>
	<g id="Camada%201">
	</g>
</svg>